# xmcd CD database file
#
# Track frame offsets:
#	150
#	11221
#	25628
#	38089
#	53765
#	72838
#	84673
#	109800
#	123903
#	137016
#	150976
#	164639
#
# Disc length: 2596 seconds
#
# Revision: 1
# Processed by: cddbd v1.5.2PL0 Copyright (c) Steve Scherf et al.
# Submitted via: CDex 1.70beta2
#
DISCID=940a220c
DTITLE=Various Artist - The World of Dixieland Vol.2 CD 2
DYEAR=1900
DGENRE=Jazz
TTITLE0=01 The New Orleans Rhythm Kings - Tiger Rag
TTITLE1=02 Firehouse Five Plus Two - Walk Right In
TTITLE2=03 Turk Murphys Jazz band - When My Sugar Walks Down The Street
TTITLE3=04 Bob Scobeys Frisco Band - Jazz Me Blues
TTITLE4=05 George Lewis - Burgundy Street Blues
TTITLE5=06 Max Kamminski - Dinah
TTITLE6=07 Kid Ory - Careless Love
TTITLE7=08 Lu Waters Yerby Buena Jazz Band - Creole Bells
TTITLE8=09 Bill Mathews and His New Orleans Dixieland Band - Maryland, My Maraland
TTITLE9=10 Firehouse Five Plus Two - Stranger Of The Shore
TTITLE10=11 Turk Murphys Jazz Band - By And By
TTITLE11=12 Sweet Emma Barrett - When The Saints Go Marching In
EXTD=
EXTT0=
EXTT1=
EXTT2=
EXTT3=
EXTT4=
EXTT5=
EXTT6=
EXTT7=
EXTT8=
EXTT9=
EXTT10=
EXTT11=
PLAYORDER=
